<?xml version="1.0" encoding="UTF-8" standalone="no"?>
<!DOCTYPE svg PUBLIC "-//W3C//DTD SVG 1.1//EN" "http://www.w3.org/Graphics/SVG/1.1/DTD/svg11.dtd">
<svg width="100%" height="100%" viewBox="0 0 300 300" version="1.1" xmlns="http://www.w3.org/2000/svg" xmlns:xlink="http://www.w3.org/1999/xlink" xml:space="preserve" xmlns:serif="http://www.serif.com/" style="fill-rule:evenodd;clip-rule:evenodd;stroke-linejoin:round;stroke-miterlimit:2;">
    <g transform="matrix(1,0,0,1,-1464,0)">
        <g id="Artboard3" transform="matrix(1,0,0,1,-0.666667,0)">
            <rect x="1464.67" y="0" width="300" height="300" style="fill:none;"/>
            <path d="M1533.78,90.642C1534.47,90.092 1529.64,83.269 1529.75,77.857C1529.86,72.444 1537.32,67.692 1540.99,65.701C1544.66,63.71 1545.57,65.873 1547.05,66.803C1548.52,67.733 1548.28,64.579 1550.19,64.386C1552.1,64.194 1560.04,63.456 1562.37,64.579C1564.71,65.701 1569.4,67.315 1575.08,68.512C1580.76,69.71 1620.73,76.651 1625.07,77.254C1629.41,77.857 1629.18,91.723 1633.28,92.443C1637.38,93.163 1637.24,79.191 1642.4,78.969C1647.56,78.747 1669.65,77.254 1674.67,77.254C1679.69,77.254 1681.02,83.133 1686.16,83.133C1688.86,83.133 1688.65,78.969 1691.28,78.969C1693.9,78.969 1696.98,80.104 1698.77,77.857C1704.49,70.655 1732.63,60.311 1739.08,68.512C1745.52,76.714 1739.45,99.633 1737.94,106.796C1736.43,113.959 1724.81,212.243 1723.73,220.325C1722.64,228.408 1723.11,234.669 1706.41,234.866C1695.65,234.993 1689.43,229.943 1689.71,226.979C1690.41,219.726 1711.55,223.073 1711.28,225.872C1711.12,227.478 1708.89,226.638 1706.41,225.872C1704.46,225.273 1696.88,224.506 1696.51,227.478C1696.13,230.45 1707.8,233.464 1714.45,230.958C1721.1,228.452 1718.93,221.708 1710.78,218.434C1702.64,215.16 1693.99,218.117 1690.07,220.325C1686.16,222.534 1667.76,232.029 1653.6,230.958C1639.45,229.887 1636.62,227.276 1632.54,225.872C1628.45,224.468 1623.27,225.302 1621.05,224.468C1618.84,223.635 1615.47,214.647 1612.83,214.865C1610.18,215.082 1601.39,229.366 1596.94,229.012C1592.49,228.658 1589.86,216.065 1586.11,215.718C1582.35,215.371 1581.72,220.226 1577.57,218.924C1573.42,217.622 1572.35,203.735 1567.36,203.329C1562.37,202.922 1565.77,210.987 1556.12,212.624C1547.56,214.075 1545.21,212.292 1544.84,209.286C1544.46,206.281 1543.16,206.196 1540.99,206.281C1537.01,206.436 1536.73,218.434 1530.4,218.434C1524.07,218.434 1518.73,218.908 1512.67,219.346C1506.62,219.784 1494.65,221.531 1492.62,221.237C1492.34,218.17 1492.5,208.632 1492.34,206.916C1492.18,205.201 1502.53,203.535 1502.43,198.483C1502.33,193.43 1493.93,196.138 1491.56,195.361C1489.19,194.583 1488.84,186.637 1488.61,183.524C1488.37,180.412 1488.95,165.333 1488.37,158.581L1486.04,131.531C1485.41,124.185 1483.26,119.237 1485.41,112.187C1487.56,105.137 1487.3,99.53 1489.96,97.262C1492.62,94.994 1498.48,97.206 1501.48,94.274C1504.47,91.342 1504.51,85.855 1507.83,83.616C1511.67,81.021 1518.62,81.218 1523.4,84.422C1528.17,87.627 1532.33,91.801 1533.78,90.642ZM1696.05,137.364C1697.14,139.36 1698.43,141.214 1699.88,142.956C1700.1,143.217 1700.42,143.369 1700.77,143.374C1701.11,143.379 1701.43,143.235 1701.66,142.98C1703.69,140.682 1705.32,138.181 1706.45,135.426C1706.62,135.022 1706.6,134.568 1706.41,134.176C1705.16,131.634 1703.67,129.108 1701.68,126.682C1701.45,126.41 1701.12,126.253 1700.77,126.256C1700.41,126.259 1700.08,126.42 1699.86,126.696C1698.24,128.711 1696.82,130.753 1695.73,132.838L1678.75,133.941C1677.53,131.775 1676.12,129.635 1674.39,127.558C1674.17,127.289 1673.83,127.135 1673.48,127.138C1673.13,127.141 1672.8,127.301 1672.58,127.575C1671.06,129.452 1669.69,131.35 1668.53,133.277L1657.71,131.245C1655.87,127.773 1653.69,124.339 1650.88,121.032C1650.66,120.766 1650.33,120.615 1649.98,120.619C1649.63,120.623 1649.3,120.781 1649.08,121.051C1645.73,125.149 1642.9,129.319 1641,133.612C1640.83,134.007 1640.83,134.455 1641,134.849C1641.56,136.107 1642.17,137.331 1642.83,138.522L1622.92,172.386L1622.82,172.257C1622.59,171.983 1622.25,171.826 1621.9,171.828C1621.54,171.831 1621.21,171.993 1620.99,172.27C1620.67,172.667 1620.36,173.066 1620.06,173.466L1594.76,144.243C1595.44,143.038 1596.04,141.794 1596.56,140.508C1596.72,140.108 1596.7,139.659 1596.51,139.271C1594.8,135.755 1592.74,132.26 1589.93,128.915C1589.71,128.648 1589.37,128.495 1589.02,128.498C1588.67,128.502 1588.34,128.661 1588.12,128.933C1587.33,129.902 1586.58,130.876 1585.87,131.857L1566.35,99.789C1566.35,99.789 1567.7,96.561 1567.7,95.358C1567.7,94.033 1562.37,85.088 1561.05,85.088C1559.94,85.088 1554.39,94.009 1554.39,95.358C1554.39,96.707 1556.06,100.372 1556.06,100.372L1538.55,131.737C1537.92,131.138 1537.32,130.769 1536.84,130.769C1534.92,130.769 1531.07,136.712 1531.07,139.684C1531.07,142.655 1534.92,148.598 1536.84,148.598C1538.77,148.598 1542.62,142.655 1542.62,139.684C1542.62,138.643 1542.15,137.238 1541.45,135.852L1558.99,104.424C1558.99,104.424 1560.7,106.023 1561.05,106.023C1561.4,106.023 1563.57,103.945 1563.57,103.945L1583.12,136.07C1582.52,137.123 1581.97,138.183 1581.49,139.253C1581.32,139.649 1581.32,140.101 1581.49,140.497C1583.2,144.314 1585.47,147.747 1588.14,150.9C1588.37,151.157 1588.68,151.307 1589.02,151.312C1589.36,151.317 1589.68,151.177 1589.91,150.926C1590.71,150.037 1591.47,149.125 1592.17,148.188L1617.48,177.411C1617.16,177.971 1616.88,178.534 1616.62,179.101C1616.44,179.503 1616.44,179.962 1616.62,180.363C1617.77,182.883 1619.26,185.168 1621.01,187.276C1621.23,187.539 1621.56,187.692 1621.9,187.697C1622.24,187.702 1622.57,187.557 1622.8,187.301C1624.65,185.19 1626.14,182.897 1627.18,180.375C1627.35,179.97 1627.33,179.515 1627.14,179.122C1626.71,178.253 1626.25,177.385 1625.75,176.524L1645.53,142.875C1646.64,144.473 1647.83,146.01 1649.1,147.495C1649.32,147.75 1649.64,147.899 1649.98,147.904C1650.31,147.909 1650.63,147.77 1650.86,147.522C1654.05,144.015 1656.64,140.202 1658.48,136.007L1666.63,137.536C1666.65,137.668 1666.68,137.798 1666.74,137.922C1668.25,141.284 1670.25,144.316 1672.6,147.103C1672.82,147.362 1673.14,147.513 1673.48,147.518C1673.82,147.522 1674.14,147.381 1674.37,147.129C1676.75,144.471 1678.67,141.582 1680.03,138.405L1696.05,137.364Z" style="fill:rgb(255,227,186);"/>
        </g>
    </g>
</svg>
