<?xml version="1.0" encoding="UTF-8" standalone="no"?>
<!DOCTYPE svg PUBLIC "-//W3C//DTD SVG 1.1//EN" "http://www.w3.org/Graphics/SVG/1.1/DTD/svg11.dtd">
<svg width="100%" height="100%" viewBox="0 0 300 300" version="1.1" xmlns="http://www.w3.org/2000/svg" xmlns:xlink="http://www.w3.org/1999/xlink" xml:space="preserve" xmlns:serif="http://www.serif.com/" style="fill-rule:evenodd;clip-rule:evenodd;stroke-linejoin:round;stroke-miterlimit:2;">
    <rect id="Artboard1" x="0" y="0" width="300" height="300" style="fill:none;"/>
    <path d="M181.782,280.704C181.782,280.704 201.494,274.901 212.098,266.23C239.412,243.895 261.675,211.396 286.481,178.975C289.515,175.009 288.044,170.848 281.712,175.522C277.1,178.926 266.343,191.688 257.362,197.275C252.722,182.443 250.064,163.994 257.362,146.63C264.66,129.265 253.084,106.676 231.017,129.265C208.95,151.855 220.089,188.274 246.497,215.044C224.485,245.434 186.334,276.626 181.782,280.704ZM17.944,224.768C7.228,223.578 12.843,228.895 20.361,231.545C26.549,233.726 33.714,233.261 36.818,233.14C53.119,232.509 88.331,223.857 105.127,202.862C126.832,175.731 126.108,167.049 110.191,151.855C94.274,136.662 95.721,116.765 122.129,101.933C148.537,87.101 171.829,78.712 180.803,68.979C189.777,59.246 194.48,36.255 158.304,23.794C122.129,11.334 63.6,24.984 33.499,61.979C6.833,94.754 14.688,123.839 40.373,146.63C66.057,169.42 83.783,174.846 81.251,190.402C78.719,205.957 37.479,226.939 17.944,224.768ZM154.247,172.747C158.692,165.153 177.584,133.851 190.92,117.923C204.256,101.994 183.817,79.425 163.322,105.328C149.987,122.183 130.539,189.602 124.427,211.643C118.314,233.684 119.611,243.871 119.611,243.871C123.412,229.411 130.75,215.916 139.985,202.938C139.985,202.938 151.678,223.038 173.139,232.943C192.402,241.833 212.776,241.833 212.776,241.833C212.776,241.833 186.289,234.98 171.287,223.312C156.284,211.643 147.208,204.419 159.248,200.715C171.287,197.011 192.402,202.012 201.662,183.675C210.923,165.338 209.442,155.707 188.697,165.338C167.953,174.97 162.195,183.675 156.284,183.675C151.839,183.675 149.801,180.341 154.247,172.747Z"/>
</svg>
