<?xml version="1.0" encoding="UTF-8" standalone="no"?>
<!DOCTYPE svg PUBLIC "-//W3C//DTD SVG 1.1//EN" "http://www.w3.org/Graphics/SVG/1.1/DTD/svg11.dtd">
<svg width="100%" height="100%" viewBox="0 0 300 300" version="1.1" xmlns="http://www.w3.org/2000/svg" xmlns:xlink="http://www.w3.org/1999/xlink" xml:space="preserve" xmlns:serif="http://www.serif.com/" style="fill-rule:evenodd;clip-rule:evenodd;stroke-linejoin:round;stroke-miterlimit:2;">
    <g transform="matrix(1,0,0,1,-2196,0)">
        <g id="candle" transform="matrix(1,0,0,1,-0.666667,0)">
            <rect x="2196.67" y="0" width="300" height="300" style="fill:none;"/>
            <g transform="matrix(1.15558,0,0,1.15558,-371.055,-23.5054)">
                <path d="M2293.16,96.202C2292.86,85.284 2306.03,78.328 2317.19,77.742L2333.19,76.904C2337.03,76.702 2338.2,74.412 2338.23,69.761C2338.26,65.11 2338.66,57.144 2338.23,52.325C2337.8,47.507 2341.5,46.235 2346,46.25C2350.5,46.266 2354.16,47.553 2353.72,52.78C2353.28,58.008 2353.65,64.472 2353.4,69.221C2353.15,73.971 2354.51,75.918 2357.39,76.222C2360.27,76.526 2380.05,78.061 2388.72,78.634C2397.39,79.206 2404.63,80.457 2403.66,100.492C2402.7,120.526 2401.3,200.512 2400.32,220.922C2399.88,229.953 2380.83,236.156 2349.27,236.156C2313.87,236.156 2299.88,229.402 2299.1,220.922C2298.57,215.106 2293.51,108.668 2293.16,96.202ZM2349.27,181.767C2359.52,177.772 2384.68,163.662 2384.68,142.208C2384.68,131.419 2377.59,124.658 2368.57,124.658C2358.59,124.658 2349.27,136.363 2349.27,136.363C2349.27,136.363 2339.96,124.658 2329.98,124.658C2320.95,124.658 2313.87,131.419 2313.87,142.208C2313.87,163.662 2339.02,177.772 2349.27,181.767Z" style="fill:rgb(255,227,186);"/>
            </g>
        </g>
    </g>
</svg>
