<?xml version="1.0" encoding="UTF-8" standalone="no"?>
<!DOCTYPE svg PUBLIC "-//W3C//DTD SVG 1.1//EN" "http://www.w3.org/Graphics/SVG/1.1/DTD/svg11.dtd">
<svg width="100%" height="100%" viewBox="0 0 300 300" version="1.1" xmlns="http://www.w3.org/2000/svg" xmlns:xlink="http://www.w3.org/1999/xlink" xml:space="preserve" xmlns:serif="http://www.serif.com/" style="fill-rule:evenodd;clip-rule:evenodd;stroke-linejoin:round;stroke-miterlimit:2;">
    <g transform="matrix(1,0,0,1,-2562,0)">
        <g id="heart" transform="matrix(1,0,0,1,-0.666667,0)">
            <rect x="2562.67" y="0" width="300" height="300" style="fill:none;"/>
            <g transform="matrix(2.74895,0,0,2.74895,-3745.37,-274.925)">
                <path d="M2349.27,184.496C2359.52,180.501 2384.68,163.662 2384.68,142.208C2384.68,131.419 2375.53,125.273 2366.51,125.273C2356.52,125.273 2349.27,136.363 2349.27,136.363C2349.27,136.363 2343.12,124.658 2333.13,124.658C2324.11,124.658 2313.87,131.419 2313.87,142.208C2313.87,163.662 2339.02,180.501 2349.27,184.496Z" style="fill:rgb(255,227,186);"/>
            </g>
        </g>
    </g>
</svg>
