<?xml version="1.0" encoding="UTF-8" standalone="no"?>
<!DOCTYPE svg PUBLIC "-//W3C//DTD SVG 1.1//EN" "http://www.w3.org/Graphics/SVG/1.1/DTD/svg11.dtd">
<svg width="100%" height="100%" viewBox="0 0 300 300" version="1.1" xmlns="http://www.w3.org/2000/svg" xmlns:xlink="http://www.w3.org/1999/xlink" xml:space="preserve" xmlns:serif="http://www.serif.com/" style="fill-rule:evenodd;clip-rule:evenodd;stroke-linejoin:round;stroke-miterlimit:2;">
    <g transform="matrix(1,0,0,1,-1830,0)">
        <g id="Artboard4" transform="matrix(1,0,0,1,-0.666667,0)">
            <rect x="1830.67" y="0" width="300" height="300" style="fill:none;"/>
            <g transform="matrix(2.3199,0,0,2.3199,-2408.18,-1644.64)">
                <path d="M1920.9,786.669C1921.09,795.562 1920.1,802.881 1915.42,807.559C1908.39,814.596 1860.6,811.282 1853.56,804.245C1850.15,800.833 1848.21,790.058 1847.5,777.669C1846.77,764.728 1847.6,751.997 1851.22,747.521C1855.21,742.576 1868.39,738.566 1881.73,736.933C1895.13,735.295 1906.22,734.322 1912.48,740.591C1916.98,745.086 1918.41,752.269 1919.22,761.063C1922.09,758.945 1925.5,756.712 1928.38,755.627C1935.93,752.785 1937.85,761.414 1938.67,771.661C1939.9,787.182 1937.54,791.677 1928.38,789.549C1925.65,788.916 1923.07,787.807 1920.9,786.669ZM1858.8,756.801C1852.83,762.393 1855.54,792.082 1860.31,796.845C1865.26,801.801 1899.09,803.777 1904.04,798.82C1910.27,792.597 1909.79,758.316 1904.04,752.568C1897.56,746.081 1868.24,747.955 1858.8,756.801ZM1873.82,762.458C1876.3,759.597 1895.6,767.673 1896.08,772.889C1896.57,778.105 1880.58,789.164 1876.79,787.949C1873.01,786.734 1870.5,766.296 1873.82,762.458Z" style="fill:rgb(255,227,186);"/>
            </g>
        </g>
    </g>
</svg>
